<svg width="7" height="12" viewBox="0 0 7 12" fill="none" xmlns="http://www.w3.org/2000/svg">
<path d="M1.77598 11.2576V7.24097H0.46936V5.06328H1.92116V4.43417C1.92116 3.17594 1.92116 1.67575 3.37295 1.19182C3.71171 1.09503 4.00207 1.04664 4.34082 0.998246C4.67957 0.949853 5.01832 0.949853 5.35708 0.949853C5.40547 0.949853 6.37333 0.90146 6.37333 0.949853V3.17594C6.37333 3.17594 5.55065 3.17594 5.45386 3.17594C5.11511 3.17594 4.72796 3.22433 4.53439 3.56309C4.38921 3.80505 4.34082 4.14381 4.29242 4.43417C4.29242 4.48256 4.29243 5.06328 4.34082 5.06328H6.13137V7.28936H4.34082V11.2092H1.77598V11.2576Z" fill="white"/>
</svg>
