<svg width="11" height="11" viewBox="0 0 11 11" fill="none" xmlns="http://www.w3.org/2000/svg">
<path d="M7.72057 0.112793H3.12322C1.57463 0.112793 0.316406 1.37102 0.316406 2.9196V7.51696C0.316406 9.06554 1.57463 10.3238 3.12322 10.3238H7.72057C9.26916 10.3238 10.5274 9.06554 10.5274 7.51696V2.96799C10.5758 1.41941 9.31755 0.112793 7.72057 0.112793ZM9.6563 7.56535C9.6563 8.63 8.78522 9.50108 7.72057 9.50108H3.12322C2.05856 9.50108 1.18749 8.63 1.18749 7.56535V2.96799C1.18749 1.90334 2.05856 1.03226 3.12322 1.03226H7.72057C8.78522 1.03226 9.6563 1.90334 9.6563 2.96799V7.56535Z" fill="white"/>
<path d="M5.44605 2.62964C3.99425 2.62964 2.78442 3.79108 2.78442 5.29127C2.78442 6.74306 3.94586 7.95289 5.44605 7.95289C6.89785 7.95289 8.10768 6.79146 8.10768 5.29127C8.10768 3.79108 6.89785 2.62964 5.44605 2.62964ZM5.44605 6.98503C4.47819 6.98503 3.70389 6.21074 3.70389 5.24287C3.70389 4.27501 4.47819 3.50072 5.44605 3.50072C6.41392 3.50072 7.1882 4.27501 7.1882 5.24287C7.1882 6.21074 6.41392 6.98503 5.44605 6.98503Z" fill="white"/>
<path d="M8.20461 1.85559C8.01104 1.85559 7.86586 1.90398 7.72068 2.04916C7.5755 2.19434 7.5271 2.33952 7.5271 2.5331C7.5271 2.72667 7.5755 2.87185 7.72068 3.01703C7.86586 3.16221 8.01104 3.2106 8.20461 3.2106C8.39818 3.2106 8.54336 3.16221 8.68854 3.01703C8.83372 2.87185 8.88211 2.72667 8.88211 2.5331C8.88211 2.33952 8.83372 2.19434 8.68854 2.04916C8.54336 1.90398 8.34979 1.85559 8.20461 1.85559Z" fill="white"/>
</svg>
