<svg width="11" height="10" viewBox="0 0 11 10" fill="none" xmlns="http://www.w3.org/2000/svg">
<path d="M10.3488 6.0651V9.59781H8.31632V6.30707C8.31632 5.48438 8.02597 4.90366 7.30007 4.90366C6.71935 4.90366 6.3806 5.29081 6.23542 5.62956C6.18703 5.77474 6.18702 5.91992 6.18702 6.11349V9.54941H4.15451C4.15451 9.54941 4.2029 3.98419 4.15451 3.40347H6.18702V4.27455C6.47738 3.83901 6.96132 3.25829 8.02597 3.25829C9.33259 3.30669 10.3488 4.17776 10.3488 6.0651ZM2.0252 0.499878C1.3477 0.499878 0.86377 0.935417 0.86377 1.56453C0.86377 2.14525 1.29931 2.62918 1.97682 2.62918C2.70271 2.62918 3.13825 2.14525 3.13825 1.56453C3.13825 0.935417 2.70271 0.499878 2.0252 0.499878ZM0.960555 9.54941H2.99307V3.45186H0.960555V9.54941Z" fill="white"/>
</svg>
