<svg width="158" height="42" viewBox="0 0 158 42" fill="none" xmlns="http://www.w3.org/2000/svg">
<g clip-path="url(#clip0_2_17)">
<path d="M21.5484 0V17.6236L0 0V24.3797L21.5484 42V24.3797L43.0968 42V17.6236" fill="#FABB00"/>
<path d="M57.2981 18.1512L54.6009 13.0343H54.5878L54.6107 18.1512H52.8637V10.101H54.9078L57.6051 15.2079H57.6181L57.5953 10.101H59.3422V18.1512H57.2981Z" fill="#432918"/>
<path d="M63.7505 18.1512H60.9586V10.101H63.8681C65.3637 10.101 66.647 10.4527 66.647 12.1185C66.647 13.3861 65.5073 13.8208 65.3539 13.8672V13.8905C65.5073 13.9137 66.8494 14.1924 66.8494 15.7388C66.8494 17.2851 66.0788 18.1545 63.7505 18.1545V18.1512ZM63.6918 11.561H62.8852V13.25H63.6461C64.3938 13.25 64.704 12.8983 64.704 12.3342C64.704 11.7701 64.3579 11.561 63.695 11.561H63.6918ZM63.7277 14.7101H62.8852V16.6546H63.6101C64.5016 16.6546 64.9032 16.2929 64.9032 15.689C64.9032 14.9656 64.4755 14.7101 63.7277 14.7101Z" fill="#432918"/>
<path d="M72.3418 18.1512C71.3687 16.8471 70.0854 14.8329 70.0854 14.8329H70.0724V18.1512H68.149V10.101H70.0724V13.396H70.0854L72.2243 10.101H74.4448L71.7475 13.9768C71.7475 13.9768 73.0308 15.8848 74.7517 18.1545H72.3418V18.1512Z" fill="#432918"/>
<path d="M80.9658 18.1512H78.1739V10.101H81.0833C82.5789 10.101 83.8622 10.4527 83.8622 12.1185C83.8622 13.3861 82.7226 13.8208 82.5691 13.8672V13.8905C82.7226 13.9137 84.0647 14.1924 84.0647 15.7388C84.0647 17.2851 83.294 18.1545 80.9658 18.1545V18.1512ZM80.907 11.561H80.1005V13.25H80.8613C81.6091 13.25 81.9193 12.8983 81.9193 12.3342C81.9193 11.7701 81.5731 11.561 80.9103 11.561H80.907ZM80.9429 14.7101H80.1005V16.6546H80.8254C81.7168 16.6546 82.1185 16.2929 82.1185 15.689C82.1185 14.9656 81.6907 14.7101 80.9429 14.7101Z" fill="#432918"/>
<path d="M88.9856 18.1513L88.8909 17.4644C88.5938 17.9223 88.0942 18.3338 87.2158 18.3338C85.5896 18.3338 84.9822 17.0894 84.9822 15.1349C84.9822 13.1804 85.6484 11.936 87.2974 11.936C88.2117 11.936 88.6624 12.3475 88.8779 12.7922H88.8909L88.9726 12.1152H90.6706V18.1513H88.9824H88.9856ZM88.7962 14.7102C88.7962 13.9503 88.3913 13.4558 87.8689 13.4558C87.1799 13.4558 86.9056 14.01 86.9056 14.7599V15.5198C86.9056 16.3759 87.2484 16.8106 87.8199 16.8106C88.4501 16.8106 88.793 16.2664 88.793 15.5663V14.7102H88.7962Z" fill="#432918"/>
<path d="M95.9344 18.1513V14.5542C95.9344 14.0365 95.7679 13.6018 95.0789 13.6018C94.5205 13.6018 94.0568 14.0365 94.0568 14.5177V18.1513H92.1694V12.1152H93.9621V12.7922H93.985C93.985 12.7922 94.625 11.936 95.8724 11.936C96.9402 11.936 97.8218 12.467 97.8218 13.9635V18.1513H95.9344Z" fill="#432918"/>
<path d="M101.554 18.3303C99.4872 18.3303 98.9288 17.086 98.9288 15.1182C98.9288 13.1504 99.6308 11.9326 101.73 11.9326C102.563 11.9326 103.239 12.2346 103.288 12.2578L103.206 13.7544C103.148 13.7179 102.576 13.4391 101.995 13.4391C101.293 13.4391 100.855 13.9103 100.855 14.8262V15.4069C100.855 16.4223 101.355 16.8072 101.972 16.8072C102.482 16.8072 102.909 16.6745 103.291 16.492L103.373 17.9653C102.864 18.2076 102.292 18.327 101.554 18.327V18.3303Z" fill="#432918"/>
<path d="M108.078 18.1513L107.984 17.4644C107.687 17.9223 107.187 18.3338 106.309 18.3338C104.682 18.3338 104.075 17.0894 104.075 15.1349C104.075 13.1804 104.741 11.936 106.39 11.936C107.305 11.936 107.755 12.3475 107.971 12.7922H107.984L108.065 12.1152H109.763V18.1513H108.075H108.078ZM107.889 14.7102C107.889 13.9503 107.484 13.4558 106.962 13.4558C106.273 13.4558 105.998 14.01 105.998 14.7599V15.5198C105.998 16.3759 106.345 16.8106 106.913 16.8106C107.543 16.8106 107.886 16.2664 107.886 15.5663V14.7102H107.889Z" fill="#432918"/>
<path d="M113.009 18.3304C112.271 18.3304 111.608 18.1976 110.955 17.9089L111.05 16.4588C111.572 16.7475 112.203 16.9533 112.784 16.9533C113.486 16.9533 113.617 16.7011 113.617 16.4456C113.617 16.1668 113.437 16.0341 112.928 15.8549L112.523 15.7222C111.69 15.4335 110.968 14.949 110.968 13.7776C110.968 12.4968 112.003 11.9293 113.427 11.9293C114.08 11.9293 114.782 12.1118 115.197 12.3043L115.115 13.7544C114.593 13.4757 113.94 13.2965 113.558 13.2965C113.058 13.2965 112.882 13.4657 112.882 13.7079C112.882 13.9601 113.084 14.1194 113.62 14.2986L114.025 14.4313C114.822 14.7101 115.52 15.168 115.52 16.3394C115.52 17.607 114.642 18.3304 113.012 18.3304H113.009Z" fill="#432918"/>
<path d="M118.449 18.3304C117.711 18.3304 117.049 18.1976 116.395 17.9089L116.49 16.4588C117.013 16.7475 117.643 16.9533 118.224 16.9533C118.926 16.9533 119.057 16.7011 119.057 16.4456C119.057 16.1668 118.88 16.0341 118.368 15.8549L117.963 15.7222C117.13 15.4335 116.405 14.949 116.405 13.7776C116.405 12.4968 117.437 11.9293 118.864 11.9293C119.517 11.9293 120.219 12.1118 120.634 12.3043L120.552 13.7544C120.03 13.4757 119.377 13.2965 118.995 13.2965C118.495 13.2965 118.319 13.4657 118.319 13.7079C118.319 13.9601 118.521 14.1194 119.053 14.2986L119.458 14.4313C120.255 14.7101 120.954 15.168 120.954 16.3394C120.954 17.607 120.076 18.3304 118.449 18.3304Z" fill="#432918"/>
<path d="M124.853 18.3436C123.06 18.3436 122.146 17.6302 122.146 15.8449V12.1151H124.033V15.7122C124.033 16.3991 124.317 16.8105 124.934 16.8105C125.552 16.8105 125.79 16.4123 125.79 15.7122V12.1151H127.677V15.8449C127.677 17.5107 126.845 18.3436 124.85 18.3436H124.853Z" fill="#432918"/>
<path d="M132.883 13.7444C132.883 13.7444 132.729 13.6947 132.396 13.6947C131.599 13.6947 131.054 14.2621 131.054 14.9623V18.1479H129.176V12.1118H130.959V12.968H130.972C131.162 12.583 131.661 11.9293 132.647 11.9293C132.85 11.9293 132.967 11.9525 132.967 11.9525L132.886 13.7378L132.883 13.7444Z" fill="#432918"/>
<path d="M137.542 18.1513L137.448 17.4644C137.15 17.9223 136.651 18.3338 135.772 18.3338C134.146 18.3338 133.539 17.0894 133.539 15.1349C133.539 13.1804 134.205 11.936 135.854 11.936C136.768 11.936 137.219 12.3475 137.434 12.7922H137.448L137.529 12.1152H139.227V18.1513H137.539H137.542ZM137.353 14.7102C137.353 13.9503 136.948 13.4558 136.425 13.4558C135.736 13.4558 135.462 14.01 135.462 14.7599V15.5198C135.462 16.3759 135.808 16.8106 136.376 16.8106C137.007 16.8106 137.35 16.2664 137.35 15.5663V14.7102H137.353Z" fill="#432918"/>
<path d="M144.491 18.1513V14.5542C144.491 14.0365 144.324 13.6018 143.635 13.6018C143.077 13.6018 142.613 14.0365 142.613 14.5177V18.1513H140.726V12.1152H142.519V12.7922H142.542C142.542 12.7922 143.182 11.936 144.429 11.936C145.497 11.936 146.378 12.467 146.378 13.9635V18.1513H144.491Z" fill="#432918"/>
<path d="M150.111 18.3303C148.044 18.3303 147.485 17.086 147.485 15.1182C147.485 13.1504 148.187 11.9326 150.287 11.9326C151.12 11.9326 151.796 12.2346 151.845 12.2578L151.763 13.7544C151.704 13.7179 151.133 13.4391 150.552 13.4391C149.85 13.4391 149.412 13.9103 149.412 14.8262V15.4069C149.412 16.4223 149.912 16.8072 150.529 16.8072C151.038 16.8072 151.466 16.6745 151.848 16.492L151.93 17.9653C151.42 18.2076 150.849 18.327 150.111 18.327V18.3303Z" fill="#432918"/>
<path d="M157.974 15.6393H154.434V15.7123C154.434 16.2664 154.744 16.8472 155.74 16.8472C156.416 16.8472 157.06 16.6646 157.592 16.4257L157.673 17.8758C157.223 18.128 156.475 18.3338 155.512 18.3338C153.184 18.3338 152.589 17.1491 152.589 15.1581C152.589 13.1671 153.337 11.936 155.489 11.936C157.402 11.936 157.997 13.0842 157.997 14.9292C157.997 15.0984 157.974 15.6426 157.974 15.6426V15.6393ZM155.407 13.1771C154.695 13.1771 154.398 13.8175 154.398 14.4314H156.263C156.263 13.8773 156.155 13.1771 155.407 13.1771Z" fill="#432918"/>
<path d="M52.8702 32.639V24.5887H54.8066V32.639H52.8702Z" fill="#432918"/>
<path d="M60.1521 32.639V29.042C60.1521 28.5243 59.9855 28.0896 59.2965 28.0896C58.7381 28.0896 58.2745 28.5243 58.2745 29.0088V32.6423H56.3871V26.6063H58.1798V27.2833H58.2026C58.2026 27.2833 58.8426 26.4271 60.09 26.4271C61.1578 26.4271 62.0395 26.9581 62.0395 28.4546V32.6423H60.1521V32.639Z" fill="#432918"/>
<path d="M65.7098 32.8315C64.5114 32.8315 63.953 32.2043 63.9628 30.9832L63.9759 28.1228H62.7775V26.603H63.9759L63.9889 25.1197L65.8665 24.9139L65.8535 26.603H67.2445V28.1228H65.8535L65.8404 30.6082C65.8404 31.1524 66.0298 31.3083 66.4576 31.3083C66.7776 31.3083 67.1596 31.1889 67.1596 31.1889L67.2413 32.5527C67.2413 32.5527 66.5751 32.8315 65.7098 32.8315Z" fill="#432918"/>
<path d="M73.3966 30.1271H69.8569V30.2001C69.8569 30.7542 70.1671 31.3349 71.163 31.3349C71.839 31.3349 72.4822 31.1524 73.0145 30.9135L73.0961 32.3636C72.6455 32.6158 71.8977 32.8216 70.9344 32.8216C68.6062 32.8216 68.0119 31.6369 68.0119 29.6459C68.0119 27.6549 68.7597 26.4238 70.9116 26.4238C72.8251 26.4238 73.4194 27.572 73.4194 29.417C73.4194 29.5862 73.3966 30.1304 73.3966 30.1304V30.1271ZM70.83 27.6649C70.1181 27.6649 69.8209 28.3053 69.8209 28.9192H71.6855C71.6855 28.365 71.5777 27.6649 70.83 27.6649Z" fill="#432918"/>
<path d="M78.2326 28.2322C78.2326 28.2322 78.0792 28.1825 77.7461 28.1825C76.9493 28.1825 76.404 28.7499 76.404 29.4501V32.6356H74.5264V26.5996H76.3093V27.4557H76.3224C76.5118 27.0708 77.0114 26.4171 77.9975 26.4171C78.2 26.4171 78.3175 26.4403 78.3175 26.4403L78.2359 28.2256L78.2326 28.2322Z" fill="#432918"/>
<path d="M86.2753 32.639V29.0419C86.2753 28.5243 86.1218 28.0896 85.5504 28.0896C85.0639 28.0896 84.623 28.511 84.623 29.0088V32.6423H82.7356V29.0453C82.7356 28.5276 82.5821 28.0929 82.0107 28.0929C81.5111 28.0929 81.0964 28.5276 81.0964 29.0121V32.6456H79.209V26.6096H81.0017V27.2865H81.0246C81.0246 27.2865 81.6417 26.4304 82.7944 26.4304C83.6728 26.4304 84.1365 26.8153 84.3879 27.3728C84.3879 27.3728 85.0998 26.4304 86.2296 26.4304C87.6076 26.4304 88.166 27.2401 88.166 28.4579V32.6456H86.2786L86.2753 32.639Z" fill="#432918"/>
<path d="M94.6511 30.1271H91.1114V30.2001C91.1114 30.7542 91.4216 31.3349 92.4176 31.3349C93.0935 31.3349 93.7368 31.1524 94.2691 30.9135L94.3507 32.3636C93.9001 32.6158 93.1523 32.8216 92.189 32.8216C89.8608 32.8216 89.2664 31.6369 89.2664 29.6459C89.2664 27.6549 90.0142 26.4238 92.1661 26.4238C94.0797 26.4238 94.674 27.572 94.674 29.417C94.674 29.5862 94.6511 30.1304 94.6511 30.1304V30.1271ZM92.0845 27.6649C91.3726 27.6649 91.0755 28.3053 91.0755 28.9192H92.94C92.94 28.365 92.8323 27.6649 92.0845 27.6649Z" fill="#432918"/>
<path d="M99.5002 32.6389L99.4186 31.962H99.4056C99.0855 32.41 98.5729 32.8181 97.7075 32.8181C96.0552 32.8181 95.474 31.5738 95.474 29.6193C95.474 27.6648 96.114 26.4204 97.7794 26.4204C98.6937 26.4204 99.1084 26.8186 99.3011 27.1338H99.3141V24.1274H101.202V32.6389H99.5035H99.5002ZM99.3109 29.1978C99.3109 28.4379 98.9059 27.9435 98.3835 27.9435C97.6814 27.9435 97.3973 28.4977 97.3973 29.2476V30.0075C97.3973 30.8636 97.7761 31.2983 98.3345 31.2983C98.9419 31.2983 99.3076 30.7541 99.3076 30.054V29.1978H99.3109Z" fill="#432918"/>
<path d="M103.68 26.1451C103.063 26.1451 102.55 25.6374 102.55 25.0102C102.55 24.383 103.06 23.8621 103.68 23.8621C104.3 23.8621 104.797 24.3698 104.797 25.0102C104.797 25.6506 104.297 26.1451 103.68 26.1451ZM102.743 32.639V26.603H104.62V32.639H102.743Z" fill="#432918"/>
<path d="M109.786 32.639L109.692 31.9522C109.394 32.4101 108.895 32.8216 108.016 32.8216C106.39 32.8216 105.783 31.5772 105.783 29.6227C105.783 27.6682 106.449 26.4238 108.098 26.4238C109.012 26.4238 109.463 26.8353 109.678 27.28H109.692L109.773 26.603H111.471V32.639H109.783H109.786ZM109.597 29.1979C109.597 28.438 109.192 27.9436 108.669 27.9436C107.98 27.9436 107.706 28.4978 107.706 29.2477V30.0076C107.706 30.8637 108.052 31.2984 108.621 31.2984C109.251 31.2984 109.594 30.7542 109.594 30.0541V29.1979H109.597Z" fill="#432918"/>
<path d="M116.653 28.2322C116.653 28.2322 116.5 28.1825 116.167 28.1825C115.37 28.1825 114.825 28.7499 114.825 29.4501V32.6356H112.947V26.5996H114.73V27.4557H114.743C114.933 27.0708 115.432 26.4171 116.418 26.4171C116.621 26.4171 116.738 26.4403 116.738 26.4403L116.657 28.2256L116.653 28.2322Z" fill="#432918"/>
<path d="M120.219 35.1144H118.201C118.867 33.6311 119.21 32.6389 119.21 32.6389L117 26.6029H118.936L120.17 30.8404H120.183L121.525 26.6029H123.39C123.39 26.6029 121.787 31.2618 120.219 35.1144Z" fill="#432918"/>
<path d="M126.943 32.639V24.5887H128.866V31.096L131.704 31.1092V32.6423H126.939L126.943 32.639Z" fill="#432918"/>
<path d="M134.927 32.8315C133.728 32.8315 133.17 32.2043 133.18 30.9832L133.193 28.1228H131.994V26.603H133.193L133.206 25.1197L135.083 24.9139L135.07 26.603H136.461V28.1228H135.07L135.057 30.6082C135.057 31.1524 135.247 31.3083 135.674 31.3083C135.994 31.3083 136.376 31.1889 136.376 31.1889L136.458 32.5527C136.458 32.5527 135.792 32.8315 134.927 32.8315Z" fill="#432918"/>
<path d="M141.294 32.6389L141.213 31.962H141.199C140.879 32.41 140.367 32.8181 139.501 32.8181C137.849 32.8181 137.268 31.5738 137.268 29.6193C137.268 27.6648 137.908 26.4204 139.573 26.4204C140.488 26.4204 140.902 26.8186 141.095 27.1338H141.108V24.1274H142.995V32.6389H141.297H141.294ZM141.105 29.1978C141.105 28.4379 140.7 27.9435 140.177 27.9435C139.475 27.9435 139.191 28.4977 139.191 29.2476V30.0075C139.191 30.8636 139.57 31.2983 140.128 31.2983C140.736 31.2983 141.101 30.7541 141.101 30.054V29.1978H141.105Z" fill="#432918"/>
</g>
<defs>
<clipPath id="clip0_2_17">
<rect width="158" height="42" fill="white"/>
</clipPath>
</defs>
</svg>
