<svg width="67" height="73" viewBox="0 0 67 73" fill="none" xmlns="http://www.w3.org/2000/svg">
<g clip-path="url(#clip0_2_258)">
<path d="M53.2802 55.8959C56.6007 56.0539 58.7029 57.6646 59.6297 60.8218C60.6389 60.8218 61.6513 60.8152 62.6621 60.8218C65.0788 60.8399 66.9538 62.6332 66.9966 64.9596C67.0411 67.3288 65.2911 69.29 62.8991 69.3294C58.7029 69.3969 54.5034 69.3492 50.3071 69.3459C50.2314 69.3459 50.154 69.3064 50.0256 69.2702V66.9076C50.3269 66.9076 50.6199 66.9076 50.9129 66.9076C54.7816 66.9076 58.6502 66.9126 62.5189 66.9043C63.8391 66.901 64.659 66.0685 64.5487 64.8807C64.4631 63.9659 63.7535 63.293 62.779 63.2749C61.462 63.2486 60.145 63.2749 58.828 63.2634C57.7382 63.2551 57.3546 62.8915 57.2641 61.8139C57.0731 59.5616 55.3512 58.247 52.7353 58.4099C52.6579 58.6024 52.5674 58.8228 52.4834 59.0433C49.4659 66.9257 43.8226 71.7644 35.4367 72.768C26.5882 73.8276 19.7514 70.2047 15.0185 62.6678C14.709 62.1759 14.4094 62.0064 13.8546 62.013C11.4412 62.036 10.0502 63.2321 9.75383 65.5947C9.63365 66.5457 9.2649 66.8945 8.31338 66.9027C7.05072 66.9142 5.7897 66.901 4.52704 66.9076C3.26767 66.9142 2.4462 67.6463 2.45444 68.7421C2.46267 69.8345 3.27426 70.5436 4.55338 70.5453C9.19082 70.5502 13.8266 70.5469 18.464 70.5469C18.7637 70.5469 19.0649 70.5469 19.4419 70.5469V72.949C19.2756 72.9638 19.1176 72.9918 18.9612 72.9918C14.0505 72.9934 9.13814 73.0099 4.22743 72.9852C2.05111 72.9737 0.340673 71.3909 0.0361203 69.2028C-0.235508 67.2531 1.08971 65.1521 3.05531 64.6767C4.02329 64.443 5.06865 64.4447 6.0745 64.4809C6.98816 64.5138 7.46721 64.3476 7.84585 63.3539C8.69366 61.1295 10.4601 59.9103 12.8471 59.6405C13.0348 59.6191 13.2224 59.5928 13.4118 59.5681C13.0891 58.168 12.6956 56.8057 12.4668 55.4155C10.8074 45.3054 17.068 35.3911 26.9405 32.5316C27.8344 32.2717 28.0961 31.9064 28.0418 31.0246C27.9644 29.7413 28.0171 28.4481 28.0237 27.1599C28.0303 25.8799 28.4106 25.5097 29.7144 25.5015C30.34 25.4982 30.9672 25.5015 31.6454 25.5015V17.0728H24.3658C24.3658 18.8431 24.3658 20.5904 24.3658 22.3376C24.3658 24.0339 24.1073 24.2938 22.4265 24.2938C17.1586 24.2938 11.8906 24.2938 6.62269 24.2938C5.25632 24.2938 4.90238 23.95 4.90074 22.6157C4.89909 18.8596 4.89909 15.1018 4.90074 11.3457C4.90074 10.0574 5.27772 9.67575 6.55685 9.6741C9.21386 9.67081 11.8709 9.6741 14.6333 9.6741V4.79428C14.6333 2.46624 14.7057 2.39385 17.0318 2.39385C21.5869 2.39385 26.1404 2.39385 30.6955 2.39385C30.9919 2.39385 31.2882 2.39385 31.6701 2.39385V0H34.1082V25.5031C34.905 25.5031 35.6079 25.4899 36.3125 25.5064C37.3381 25.5294 37.7711 25.9473 37.7842 26.9674C37.804 28.4744 37.8073 29.9831 37.7809 31.4918C37.7711 32.0085 37.9176 32.2306 38.4526 32.3951C46.4681 34.8482 51.42 40.1706 53.2358 48.3524C53.7807 50.8104 53.7494 53.3046 53.2819 55.8959H53.2802ZM32.8966 70.5486C42.9764 70.5486 51.1665 62.3815 51.1796 52.3191C51.1928 42.2584 43.0094 34.0436 32.9509 34.0239C22.8496 34.0025 14.63 42.2107 14.6333 52.3109C14.6382 62.3848 22.8134 70.5502 32.8966 70.5486ZM31.6438 14.5293V4.87654H17.1322V14.5276H31.6438V14.5293ZM7.39807 12.1486V21.7947H20.1053C19.8452 21.5134 19.6707 21.3143 19.4847 21.1267C18.0689 19.7102 16.6236 18.3232 15.2555 16.8622C14.9197 16.5052 14.7024 15.9244 14.6612 15.4276C14.5724 14.3483 14.6333 13.2575 14.6333 12.1486H7.39807ZM35.2984 31.6498V27.9957H30.5276V31.6498H35.2984ZM21.8635 19.906V17.086H19.0896C20.0082 18.0205 20.9186 18.9451 21.8635 19.906Z" fill="#3C251F"/>
<path d="M25.0211 65.9665C25.3981 65.3084 25.7767 64.6503 26.1916 63.9281C30.029 65.9599 33.9684 66.3055 37.9967 64.6717C40.9517 63.474 43.1856 61.4322 44.6936 58.627C47.7457 52.9558 46.2806 45.8549 41.2563 41.8668C36.2023 37.8573 29.0593 37.9873 24.1997 42.1366C19.3202 46.3041 17.6756 53.9759 22.1386 60.3529C21.541 60.8054 20.9401 61.2627 20.3392 61.7185C16.8163 57.8307 15.203 49.2392 20.4248 42.548C25.6895 35.8008 35.4945 34.473 42.3543 39.598C49.2487 44.7493 50.8011 54.4448 45.8213 61.4371C40.5764 68.803 31.104 69.693 25.0195 65.9665H25.0211Z" fill="#3C251F"/>
<path d="M31.8102 45.0504H34.1445C33.8153 46.0935 34.4606 46.4949 35.185 46.9704C36.1299 47.5907 36.553 48.5729 36.5398 49.8447C35.8369 49.8447 35.1603 49.8743 34.4886 49.8233C34.3339 49.8118 34.1462 49.5436 34.0655 49.356C33.8038 48.7423 33.2934 48.5169 32.7354 48.6782C32.3567 48.7884 31.9122 49.129 31.7657 49.4794C31.5336 50.0322 31.909 50.4501 32.4407 50.7068C33.2292 51.0885 34.0244 51.4603 34.7849 51.8946C36.9892 53.15 37.2032 56.2398 35.124 57.6596C34.4079 58.1483 33.8647 58.5563 34.1478 59.5517H31.7509C31.7328 59.3131 31.6818 59.0959 31.7065 58.887C31.7657 58.4066 31.5534 58.1779 31.127 57.9607C29.8775 57.3256 29.2453 56.1723 29.3128 54.7903C29.4396 54.7722 29.5713 54.7393 29.703 54.7377C30.3302 54.7327 30.9574 54.7344 31.639 54.7344C31.7345 55.6294 32.2382 56.0851 33.0827 55.9041C33.4449 55.8268 33.9519 55.4846 34.0112 55.1868C34.0803 54.8331 33.8499 54.2424 33.5519 54.0318C32.8901 53.5613 32.1081 53.2602 31.3723 52.8966C30.0899 52.2615 29.3178 51.2694 29.275 49.8085C29.2322 48.3162 29.9088 47.1958 31.2488 46.5805C32.0324 46.2202 31.4908 45.544 31.8118 45.0504H31.8102Z" fill="#3C251F"/>
<path d="M24.4186 51.1165H26.7562V53.456H24.4186V51.1165Z" fill="#3C251F"/>
<path d="M41.4109 51.1313V53.4659H39.0618V51.1313H41.4109Z" fill="#3C251F"/>
</g>
<defs>
<clipPath id="clip0_2_258">
<rect width="67" height="73" fill="white"/>
</clipPath>
</defs>
</svg>
