<svg width="82" height="82" viewBox="0 0 82 82" fill="none" xmlns="http://www.w3.org/2000/svg">
<g clip-path="url(#clip0_2_278)">
<path d="M31.8444 56.3349C31.5449 56.7538 31.2558 57.1814 30.9459 57.5916C29.9384 58.9228 28.3612 59.2794 26.8654 58.516C26.5572 58.3585 26.256 58.1889 25.96 58.0106C24.324 57.0169 23.8721 55.2235 24.8987 53.6222C27.4004 49.7152 29.9228 45.822 32.4348 41.9218C33.1152 40.8658 34.0916 40.3465 35.3363 40.3448C39.0862 40.3396 42.8343 40.3431 46.5842 40.3448C47.8999 40.3448 48.9058 40.9074 49.6208 42.0136C52.0913 45.8375 54.5738 49.6529 57.0426 53.4803C58.1558 55.2079 57.7178 57.0152 55.9554 58.0625C55.6576 58.2391 55.3598 58.4156 55.0482 58.5662C53.6442 59.2466 52.048 58.8709 51.0975 57.6332C50.7703 57.2056 50.4725 56.7555 50.0501 56.1583C50.0207 56.5824 49.9895 56.8213 49.9878 57.0619C49.9826 58.677 49.9722 60.2921 49.9878 61.9072C50.0016 63.1882 49.5377 64.1819 48.4487 64.9124C48.2167 65.0682 48.0817 65.5235 48.08 65.842C48.0557 69.7352 48.0644 73.6284 48.0644 77.5199C48.0644 80.4836 46.553 81.9948 43.5961 81.9965C41.7506 81.9965 39.9051 82.0069 38.0596 81.9948C35.5701 81.9775 33.9566 80.3607 33.9496 77.861C33.9375 73.8812 33.9392 69.9014 33.9548 65.9234C33.9566 65.4006 33.87 65.0405 33.3645 64.7289C32.4071 64.1403 32.0245 63.1882 32.0262 62.0752C32.0262 60.1796 32.0262 58.2841 32.0262 56.3885L31.8462 56.3383L31.8444 56.3349ZM40.9819 42.9085C39.1935 42.9085 37.4034 42.886 35.6168 42.9293C35.2671 42.938 34.7754 43.1059 34.6023 43.3673C32.0834 47.1947 29.6042 51.0498 27.132 54.9102C27.016 55.0902 26.9589 55.4399 27.0558 55.6043C27.5579 56.4508 28.6243 56.4543 29.1905 55.6442C31.0238 53.0216 32.852 50.3938 34.6923 47.7764C35.2463 46.9904 35.9734 46.8121 36.6105 47.264C37.2546 47.7192 37.329 48.4446 36.7871 49.2426C36.1864 50.1237 35.5406 50.9754 34.9676 51.8738C34.765 52.1906 34.6162 52.6044 34.6127 52.9765C34.585 55.9177 34.6127 58.8605 34.585 61.8034C34.5781 62.5149 34.8343 62.7936 35.5354 62.7901C39.171 62.778 42.8049 62.7745 46.4405 62.7918C47.2005 62.7953 47.429 62.4785 47.4221 61.7445C47.3909 58.8034 47.4221 55.8605 47.3944 52.9177C47.3909 52.5455 47.2438 52.13 47.0412 51.8133C46.4215 50.8421 45.7238 49.9212 45.0936 48.9552C44.6677 48.3026 44.8079 47.6084 45.3758 47.193C45.9731 46.755 46.6898 46.8814 47.2005 47.5202C47.3442 47.7002 47.4637 47.8975 47.5952 48.088C49.3836 50.6725 51.1945 53.2414 52.9482 55.8484C53.5957 56.8126 54.1185 56.0977 54.6846 55.838C55.346 55.5351 55.0517 55.1162 54.792 54.7146C52.3786 50.9893 49.9791 47.2553 47.526 43.5542C47.3078 43.2236 46.7539 42.9553 46.3453 42.9397C44.5586 42.8739 42.7685 42.912 40.9802 42.912L40.9819 42.9085ZM42.2734 79.4224C42.7893 79.4224 43.2117 79.4224 43.6359 79.4224C45.1023 79.4207 45.4935 79.0398 45.4935 77.5996C45.4952 73.8241 45.4935 70.0486 45.4935 66.2713C45.4935 65.9909 45.4935 65.7122 45.4935 65.4179H36.5101C36.5101 69.2384 36.5673 72.9827 36.4928 76.7236C36.4357 79.6336 37.078 79.4484 39.3078 79.4172C39.4169 79.4172 39.5277 79.3843 39.7337 79.3514C39.7337 78.9152 39.7337 78.4911 39.7337 78.067C39.7337 74.8385 39.7268 71.61 39.7406 68.3832C39.7441 67.4571 40.2167 66.9516 40.9958 66.9482C41.7748 66.9447 42.2319 67.4519 42.27 68.3694C42.2803 68.5996 42.2734 68.8299 42.2734 69.0618C42.2734 72.1743 42.2734 75.2868 42.2734 78.4011V79.4241V79.4224Z" fill="#3C251F"/>
<path d="M53.2978 28.8763C52.6641 27.1435 52.098 25.5509 51.4817 23.9756C51.4211 23.8215 51.0645 23.7055 50.8446 23.7055C44.2953 23.6917 37.7443 23.69 31.1951 23.7073C30.9579 23.7073 30.5753 23.851 30.5078 24.0241C29.8966 25.5717 29.3409 27.1418 28.7298 28.8157H33.2172C33.0146 29.7107 32.8346 30.5035 32.6337 31.3933C31.292 31.3933 29.9434 31.4227 28.5965 31.3795C27.9836 31.3604 27.6945 31.5543 27.4798 32.1498C25.9494 36.4048 24.3827 40.646 22.802 44.882C22.6583 45.2663 22.4125 45.7752 22.0905 45.8912C21.6733 46.0418 21.057 45.9985 20.6674 45.7839C20.0978 45.4688 20.103 44.8318 20.3212 44.2397C21.1141 42.0759 21.9053 39.912 22.6999 37.7499C27.1423 25.6669 31.5846 13.5839 36.027 1.50086C36.503 0.206002 37.0553 -0.211191 37.888 0.0900187C38.7554 0.403346 38.9095 1.08366 38.4213 2.42007C37.9486 3.71146 37.4795 5.00458 36.9913 6.34445H45.019C44.4892 4.90418 43.9803 3.53316 43.4834 2.15694C43.3864 1.88862 43.2756 1.60645 43.2653 1.32775C43.241 0.623194 43.6288 0.166187 44.3005 0.038086C45.0328 -0.102132 45.5193 0.28217 45.7704 0.953833C46.5442 3.03114 47.3094 5.11364 48.0746 7.19441C52.5672 19.4124 57.058 31.6305 61.5488 43.8485C61.5887 43.9558 61.6233 44.0666 61.6596 44.1757C61.947 45.0378 61.7081 45.7215 61.0277 45.9951C60.2954 46.2893 59.6012 45.9431 59.274 45.0724C58.4846 42.9691 57.7176 40.8589 56.9403 38.7505C56.1335 36.5606 55.2991 34.3829 54.5408 32.1758C54.3192 31.5318 53.9989 31.3518 53.3584 31.3743C52.0357 31.421 50.7113 31.3881 49.3817 31.3881C49.1843 30.5416 49.0026 29.7626 48.7948 28.8694H53.2995L53.2978 28.8763ZM31.5777 21.0778H50.4274C49.9115 19.66 49.4371 18.3097 48.9125 16.9803C48.8468 16.8141 48.5178 16.6548 48.3101 16.6548C43.4401 16.6375 38.5719 16.6375 33.7019 16.6548C33.4924 16.6548 33.1618 16.8106 33.096 16.9751C32.5714 18.3045 32.097 19.6548 31.5777 21.0778ZM47.8478 14.0461C47.2436 12.3929 46.707 10.8764 46.1201 9.38078C46.0456 9.19036 45.7132 8.98609 45.4985 8.98436C42.5018 8.95839 39.505 8.96185 36.5082 8.97743C36.3178 8.97743 36.0079 9.08476 35.956 9.21979C35.3448 10.7899 34.7718 12.3738 34.1555 14.0478H47.8478V14.0461Z" fill="#3C251F"/>
<path d="M25.7764 21.9606C24.1006 20.5203 22.5147 19.158 20.7645 17.6537C20.5515 17.9531 20.3992 18.2422 20.1793 18.4638C16.2719 22.383 12.3558 26.2953 8.44152 30.2075C8.27878 30.3702 8.11605 30.5347 7.95331 30.6974C7.17425 31.466 6.42463 31.5785 5.8464 31.0142C5.2699 30.4516 5.36858 29.6605 6.11993 28.9075C7.74902 27.275 9.37812 25.6426 11.0159 24.0189C11.2184 23.8181 11.4729 23.6657 11.7413 23.4632C10.616 22.4661 9.61357 21.5763 8.5125 20.6C7.29717 21.6178 5.77888 22.8885 4.26058 24.1591C3.57501 24.7321 2.90329 25.3206 2.20388 25.8781C1.51311 26.4285 0.770412 26.3714 0.294322 25.769C-0.164456 25.1856 -0.0900127 24.4793 0.552276 23.9358C3.01409 21.8498 5.4863 19.7725 7.96543 17.7056C8.69082 17.0997 9.24654 17.1516 9.94943 17.8025C11.1942 18.9554 12.4459 20.1014 13.7426 21.2941C15.5569 19.4782 17.5288 17.5013 19.5024 15.5279C20.5481 14.4823 21.0051 14.4684 22.1287 15.4396C23.4808 16.6081 24.8242 17.7869 26.1953 18.9312C26.5797 19.2532 26.7407 19.525 26.5052 20.0235C26.2282 20.6121 26.0413 21.2439 25.7781 21.9606H25.7764Z" fill="#3C251F"/>
<path d="M73.3992 20.5099C72.3155 21.4672 71.3252 22.3432 70.2519 23.2901C71.6195 24.649 72.9041 25.9248 74.187 27.2006C74.76 27.7701 75.333 28.3397 75.9009 28.9144C76.6418 29.6657 76.7353 30.4758 76.1519 31.0263C75.5875 31.5578 74.824 31.4591 74.1039 30.739C70.0216 26.6605 65.9428 22.5803 61.8657 18.4967C61.6424 18.2734 61.4572 18.0103 61.1992 17.7004C59.5199 19.1424 57.9306 20.5065 56.2375 21.9623C55.9345 21.1453 55.6229 20.413 55.4134 19.6513C55.365 19.473 55.6108 19.1476 55.8012 18.9797C57.2295 17.7194 58.6733 16.48 60.1189 15.2405C60.9517 14.5273 61.5212 14.5394 62.3003 15.3132C64.3449 17.3455 66.3791 19.3917 68.2869 21.3011C69.4191 20.2676 70.5514 19.293 71.6161 18.2491C72.8833 17.0062 73.1499 16.9577 74.4899 18.076C76.7907 20.001 79.1071 21.9087 81.3629 23.8838C81.7074 24.1851 81.9308 24.8256 81.8961 25.2878C81.8719 25.6184 81.3612 26.1031 81.0028 26.1671C80.5995 26.2399 80.0385 26.0287 79.6957 25.7534C77.897 24.308 76.1467 22.8036 74.3791 21.3201C74.0052 21.0068 73.6312 20.6969 73.4027 20.5065L73.3992 20.5099Z" fill="#3C251F"/>
<path d="M46.7503 31.9992C46.7572 35.2138 44.2106 37.7758 41.0043 37.7793C37.7998 37.7845 35.248 35.219 35.2566 32.0044C35.2653 28.8296 37.7946 26.2849 40.9558 26.271C44.1742 26.2572 46.7416 28.795 46.7503 31.9975V31.9992ZM41.0147 28.8434C39.2333 28.84 37.8275 30.2196 37.8102 31.9923C37.7929 33.7822 39.261 35.2606 41.0372 35.2363C42.7892 35.2138 44.2019 33.7736 44.1985 32.0148C44.195 30.2456 42.791 28.8469 41.0147 28.8434Z" fill="#3C251F"/>
<path d="M6.87127 9.81182C6.88685 9.66814 6.8678 9.51061 6.92147 9.38424C7.57934 7.85742 6.99592 6.77202 5.73211 5.88743C5.2162 5.52564 4.92189 4.92322 5.2439 4.38139C5.48455 3.97631 6.05585 3.51411 6.48001 3.51411C8.17142 3.51757 9.16515 2.7732 9.71742 1.19445C9.85072 0.815342 10.4861 0.368721 10.8704 0.386032C11.3032 0.406805 11.9455 0.832653 12.0909 1.2308C12.6501 2.76109 13.5971 3.51584 15.2678 3.50892C15.7075 3.50719 16.3013 3.99709 16.5523 4.42293C16.8692 4.96303 16.5558 5.57065 16.0364 5.92033C14.7674 6.77375 14.2948 7.84703 14.8488 9.34442C15.0652 9.93126 14.9873 10.5545 14.3987 10.9716C13.8101 11.3871 13.2024 11.2538 12.7142 10.8609C11.3915 9.79451 10.197 10.1459 8.89335 10.9474C7.85115 11.5879 6.84876 10.9595 6.87127 9.81355V9.81182ZM11.7689 7.36059C11.9403 6.82396 12.1152 6.27347 12.271 5.78011C11.8503 5.46678 11.3482 5.0946 10.905 4.76569C10.4428 5.10325 9.94248 5.47197 9.54083 5.76626C9.69838 6.32194 9.86111 6.89666 9.99269 7.36059H11.7672H11.7689Z" fill="#3C251F"/>
<path d="M67.0767 9.78411C67.165 9.2319 67.2083 8.62082 67.3745 8.04437C67.5286 7.506 67.3537 7.18402 66.9607 6.85857C66.5401 6.51062 66.1419 6.12978 65.7714 5.72817C65.001 4.89378 65.3247 3.8032 66.4223 3.53661C66.895 3.42063 67.3901 3.31157 67.8714 3.32715C68.7128 3.35658 69.1057 2.89957 69.3827 2.20194C69.542 1.80206 69.7428 1.41602 69.9644 1.04557C70.5271 0.103858 71.7978 0.0034551 72.1718 0.988445C72.8366 2.73511 73.948 3.48987 75.7987 3.57296C76.898 3.62316 77.3083 5.01669 76.4254 5.70047C75.0335 6.77721 74.5955 7.9457 75.0768 9.67679C75.404 10.8522 74.2077 11.6589 73.1776 10.9699C71.7268 9.99877 70.4786 10.0005 69.0365 10.9751C68.086 11.6173 67.0456 10.9232 67.0767 9.78411ZM71.1105 4.75876C70.6569 5.09805 70.1583 5.47024 69.7532 5.77318C69.9073 6.31501 70.0735 6.89146 70.2068 7.36059H71.9744C72.1596 6.80664 72.3449 6.2475 72.4903 5.80953C72.0177 5.44946 71.5381 5.0842 71.1105 4.75876Z" fill="#3C251F"/>
<path d="M19.6097 26.1897C18.7475 27.1227 17.9511 27.9952 17.1427 28.8538C16.5021 29.5341 15.7282 29.6293 15.1673 29.1187C14.577 28.5803 14.5943 27.8619 15.2487 27.1418C16.3151 25.9681 17.3885 24.8013 18.4757 23.645C19.2011 22.8729 19.8572 22.8642 20.6363 23.5896C21.0587 23.9825 21.4742 24.3824 21.8776 24.7944C22.5562 25.4868 22.6116 26.2087 22.0472 26.773C21.5175 27.3028 20.8094 27.2629 20.129 26.664C19.9784 26.5324 19.833 26.3957 19.6097 26.1914V26.1897Z" fill="#3C251F"/>
<path d="M62.4094 26.2018C62.1254 26.4493 61.9038 26.6726 61.6545 26.8579C61.059 27.2976 60.4548 27.2699 59.9458 26.7436C59.4663 26.2485 59.4057 25.6288 59.8662 25.106C60.434 24.462 61.0538 23.851 61.7203 23.3091C62.257 22.8712 62.8854 22.9698 63.3563 23.4649C64.5647 24.7338 65.7558 26.0217 66.921 27.3305C67.4369 27.9104 67.3745 28.6184 66.8569 29.1083C66.3427 29.5947 65.5619 29.5739 65.0097 29.001C64.1337 28.0939 63.2923 27.1539 62.4111 26.2018H62.4094Z" fill="#3C251F"/>
<path d="M2.56565 14.1118C2.55527 14.7922 1.97357 15.3669 1.29319 15.3669C0.579925 15.3669 -0.0260077 14.735 0.0120795 14.0287C0.0484354 13.3536 0.664756 12.7858 1.33301 12.8101C2.01339 12.836 2.57777 13.4298 2.56565 14.1101V14.1118Z" fill="#3C251F"/>
<path d="M81.9983 14.0564C82.0191 14.7281 81.453 15.334 80.7743 15.3652C80.0939 15.398 79.4897 14.8527 79.4447 14.1707C79.398 13.4575 79.9883 12.8204 80.7016 12.8101C81.3681 12.8014 81.9775 13.3865 81.9983 14.0564Z" fill="#3C251F"/>
<path d="M26.8949 1.40046C26.8274 2.0877 26.2162 2.60703 25.5341 2.55336C24.8174 2.49624 24.2946 1.84708 24.3794 1.12002C24.459 0.441435 25.1048 -0.0726987 25.7713 0.0103937C26.4499 0.0952171 26.9624 0.727065 26.8949 1.40046Z" fill="#3C251F"/>
<path d="M57.6364 1.25503C57.6503 1.9492 57.1101 2.52738 56.4245 2.55508C55.7078 2.58451 55.095 1.98555 55.1036 1.26715C55.1123 0.593757 55.7026 0.00345578 56.3709 0.00172469C57.0495 -0.00173749 57.6243 0.567791 57.6364 1.25503Z" fill="#3C251F"/>
</g>
<defs>
<clipPath id="clip0_2_278">
<rect width="82" height="82" fill="white"/>
</clipPath>
</defs>
</svg>
