<svg width="73" height="73" viewBox="0 0 73 73" fill="none" xmlns="http://www.w3.org/2000/svg">
<g clip-path="url(#clip0_2_266)">
<path d="M36.4902 18.8466C26.74 18.8499 18.8417 26.7661 18.8483 36.5294C18.8548 46.2764 26.7759 54.1648 36.5474 54.1534C46.2862 54.1419 54.1746 46.2061 54.155 36.4363C54.1354 26.7465 46.1996 18.845 36.4918 18.8483L36.4902 18.8466ZM50.9153 36.4346C50.9513 44.3999 44.5715 50.8663 36.6308 50.9137C28.6083 50.9627 22.1354 44.5977 22.0864 36.6112C22.0373 28.6018 28.4236 22.1239 36.4085 22.0847C44.4048 22.0455 50.8793 28.4497 50.9153 36.433V36.4346Z" fill="#3C251F"/>
<path d="M8.418 14.9351C9.0228 14.9351 9.50826 14.9351 9.99373 14.9351C12.8526 14.9351 15.7098 14.9433 18.5687 14.9286C19.5592 14.9236 20.2703 14.2224 20.2654 13.3218C20.2605 12.4489 19.5952 11.7297 18.6357 11.7232C14.6882 11.697 10.7424 11.6954 6.79487 11.7264C5.82557 11.7346 5.23386 12.3786 5.22895 13.361C5.20934 17.2807 5.2077 21.2004 5.22895 25.1201C5.23386 26.1401 5.93345 26.7825 6.8766 26.7514C7.77562 26.722 8.40656 26.0731 8.4131 25.0891C8.42945 22.0406 8.41964 18.9921 8.42127 15.9436C8.42127 15.6478 8.42127 15.3535 8.42127 14.9351H8.418Z" fill="#3C251F"/>
<path d="M64.5836 14.9351C64.5836 15.329 64.5836 15.6216 64.5836 15.9158C64.5836 18.9104 64.5787 21.9033 64.5869 24.8978C64.5902 26.0583 65.1966 26.753 66.1773 26.7563C67.1565 26.7596 67.7809 26.0665 67.7841 24.9076C67.7939 21.1236 67.7956 17.3412 67.7841 13.5571C67.7792 12.3051 67.1777 11.7182 65.9109 11.7133C62.1547 11.7019 58.3984 11.7035 54.6422 11.7133C53.462 11.7166 52.7101 12.395 52.7412 13.3773C52.7722 14.3319 53.4996 14.9334 54.652 14.9351C57.9162 14.94 61.1821 14.9351 64.5853 14.9351H64.5836Z" fill="#3C251F"/>
<path d="M8.41804 58.0633C8.41804 57.689 8.41804 57.398 8.41804 57.1071C8.41804 54.0586 8.42785 51.0101 8.4115 47.9616C8.40496 46.7455 7.45364 46.0034 6.35848 46.3074C5.62619 46.5118 5.22082 47.1084 5.21755 48.0728C5.20774 51.0935 5.21428 54.1158 5.21428 57.1365C5.21428 57.9538 5.1963 58.7694 5.22245 59.5867C5.25514 60.6541 5.83869 61.2736 6.90606 61.2785C10.798 61.2997 14.6899 61.2997 18.5834 61.2785C19.5887 61.2736 20.2801 60.5495 20.2654 59.6488C20.2507 58.7498 19.5397 58.0731 18.5393 58.0698C15.4908 58.0567 12.4424 58.0649 9.39388 58.0649C9.10129 58.0649 8.81034 58.0649 8.41804 58.0649V58.0633Z" fill="#3C251F"/>
<path d="M64.5836 58.0633C64.2027 58.0633 63.9134 58.0633 63.6225 58.0633C60.574 58.0633 57.5255 58.0535 54.477 58.0698C53.1955 58.0764 52.4142 59.165 52.867 60.2716C53.1448 60.9516 53.6924 61.2801 54.4051 61.2834C58.297 61.2948 62.1889 61.3014 66.0808 61.2817C67.1515 61.2768 67.771 60.6606 67.7759 59.6014C67.7972 55.7095 67.7955 51.8176 67.7759 47.9257C67.771 46.8959 67.0975 46.2404 66.1675 46.247C65.239 46.2535 64.5934 46.922 64.5885 47.9518C64.5754 51.0003 64.5836 54.0488 64.5819 57.0972C64.5819 57.3898 64.5819 57.6808 64.5819 58.0682L64.5836 58.0633Z" fill="#3C251F"/>
<path d="M38.1232 65.1639C38.1232 63.204 38.1281 61.2442 38.1216 59.2843C38.1166 58.0829 37.489 57.3751 36.469 57.3915C35.4834 57.4078 34.8851 58.0992 34.8835 59.2663C34.8769 63.2138 34.8786 67.1597 34.8835 71.1072C34.8835 72.3135 35.5111 73.0163 36.5327 73C37.5151 72.9836 38.1166 72.2873 38.1216 71.1251C38.1297 69.1375 38.1232 67.1515 38.1232 65.1639Z" fill="#3C251F"/>
<path d="M7.81492 38.1215C9.77477 38.1215 11.7346 38.1264 13.6945 38.1215C14.9139 38.1182 15.6151 37.5151 15.6102 36.4935C15.6053 35.4784 14.9024 34.8834 13.6765 34.8818C9.75679 34.8769 5.83708 34.8769 1.91738 34.8818C0.704526 34.8818 -0.00487846 35.4964 2.52565e-05 36.5098C0.00492897 37.52 0.714333 38.1166 1.93372 38.1199C3.89358 38.1248 5.85343 38.1199 7.81328 38.1199L7.81492 38.1215Z" fill="#3C251F"/>
<path d="M65.2718 38.1215C67.2038 38.1215 69.1375 38.1248 71.0696 38.1215C72.289 38.1182 72.9984 37.5183 73 36.5082C73.0033 35.4964 72.2923 34.8834 71.0794 34.8818C67.1597 34.8769 63.24 34.8769 59.3203 34.8818C58.0944 34.8818 57.3948 35.48 57.3915 36.4984C57.3882 37.52 58.0862 38.1182 59.3088 38.1231C61.2965 38.1297 63.2825 38.1231 65.2701 38.1231L65.2718 38.1215Z" fill="#3C251F"/>
<path d="M34.8801 7.89826C34.8801 9.83033 34.8752 11.764 34.8801 13.6961C34.8834 14.9171 35.4849 15.6151 36.5081 15.6102C37.5248 15.6053 38.1182 14.904 38.1198 13.6765C38.1247 9.75677 38.1247 5.83707 38.1198 1.91736C38.1198 0.707779 37.502 -0.00489521 36.4902 0.00164318C35.48 0.00654697 34.885 0.715951 34.8817 1.93698C34.8768 3.92462 34.8817 5.91062 34.8817 7.89826H34.8801Z" fill="#3C251F"/>
<path d="M28.1735 36.5164C28.18 41.0899 31.9199 44.8282 36.4934 44.8298C41.0964 44.8314 44.8494 41.0556 44.8298 36.4444C44.8085 31.8856 41.0359 28.1539 36.464 28.1719C31.8954 28.1882 28.1669 31.9412 28.1735 36.5164ZM31.4165 36.5164C31.4116 33.6885 33.6509 31.4263 36.4657 31.4149C39.3229 31.4034 41.5933 33.6738 41.5851 36.5311C41.577 39.3458 39.3147 41.5901 36.4918 41.5868C33.6673 41.5835 31.4214 39.3376 31.4165 36.5147V36.5164Z" fill="#3C251F"/>
</g>
<defs>
<clipPath id="clip0_2_266">
<rect width="73" height="73" fill="white" transform="matrix(1 0 0 -1 0 73)"/>
</clipPath>
</defs>
</svg>
