<svg width="10" height="8" viewBox="0 0 10 8" fill="none" xmlns="http://www.w3.org/2000/svg">
<path d="M9.52416 1.49351C9.2338 1.63869 8.84665 1.78387 8.45951 1.78387C8.84665 1.54191 9.13701 1.20316 9.28219 0.767616C8.94344 0.961189 8.5079 1.15476 8.12076 1.20316C7.782 0.864403 7.29807 0.622437 6.76574 0.622437C5.74949 0.622437 4.9268 1.44512 4.9268 2.46138C4.9268 2.60656 4.9268 2.75174 4.97519 2.89692C3.42661 2.80013 2.0716 2.07423 1.15213 0.961189C1.00695 1.25155 0.910162 1.54191 0.910162 1.88066C0.910162 2.50977 1.24891 3.09049 1.73285 3.42924C1.44249 3.42924 1.15213 3.33246 0.910162 3.18728C0.910162 4.10675 1.53927 4.83265 2.41035 5.02622C2.26517 5.07461 2.0716 5.07461 1.92642 5.07461C1.82963 5.07461 1.68445 5.07461 1.58767 5.02622C1.82963 5.75212 2.50714 6.28444 3.32982 6.33284C2.70071 6.81677 1.87803 7.10713 1.00695 7.10713C0.861768 7.10713 0.716591 7.10713 0.571411 7.10713C1.3941 7.63945 2.36196 7.92981 3.42661 7.92981C6.81414 7.92981 8.70147 5.12301 8.70147 2.65495V2.41299C8.99183 2.21941 9.28219 1.88066 9.52416 1.49351Z" fill="white"/>
</svg>
