<svg width="55" height="70" viewBox="0 0 55 70" fill="none" xmlns="http://www.w3.org/2000/svg">
<g clip-path="url(#clip0_2_296)">
<path d="M27.1634 7.26797C39.1218 7.60035 47.9935 12.8741 54.5893 22.3091C55.1275 23.0788 55.1334 23.6652 54.6099 24.3433C49.237 31.2877 42.6382 36.4831 34.0012 38.5971C26.1927 40.5086 18.8856 38.9885 12.0434 34.9099C7.64132 32.2849 3.90348 28.8872 0.747804 24.8367C-0.215616 23.6002 -0.249343 23.2161 0.642224 21.959C6.03122 14.3646 13.1198 9.37893 22.3463 7.7525C24.0473 7.45263 25.7923 7.39945 27.1634 7.26649V7.26797ZM51.8164 23.4643C39.3726 5.97687 15.8267 5.7937 3.28466 23.3122C3.36092 23.423 3.4357 23.5485 3.52662 23.6593C6.69256 27.475 10.3732 30.6747 14.724 33.0471C20.396 36.1404 26.3906 37.2986 32.7665 35.9011C38.1745 34.7164 42.8113 32.0145 46.9069 28.3525C48.6329 26.8088 50.2004 25.0834 51.8164 23.4658V23.4643Z" fill="#3C251F"/>
<path d="M12.325 37.0489C13.8545 38.3548 15.3692 39.5543 16.7785 40.872C19.5705 43.4837 21.1336 46.7499 21.6132 50.5508C21.6307 50.6956 21.6557 50.8389 21.6821 51.0102H26.0402V42.3536H28.9173V50.9954H33.268C33.4895 49.9658 33.6566 48.9244 33.9396 47.9169C34.8092 44.8221 36.5117 42.2621 38.9606 40.2013C40.1762 39.1776 41.3875 38.148 42.6794 37.0548C43.2908 37.6058 43.9756 38.2233 44.8071 38.9737C43.6574 39.9916 42.5342 40.9518 41.4505 41.9548C40.537 42.7998 39.5765 43.6211 38.7993 44.5843C37.3226 46.416 36.5278 48.5654 36.2536 51.0176H39.031V53.9499H36.2184V58.3314H37.5792V61.2208C37.1393 61.2459 36.7082 61.2725 36.2111 61.3006C36.0747 64.1886 34.9412 66.5728 32.6155 68.3101C31.0318 69.4933 29.2281 70.0591 27.2646 69.9956C24.9477 69.9202 22.9388 69.0472 21.3081 67.3735C19.6819 65.7042 18.8901 63.6612 18.8021 61.2991C18.324 61.2755 17.8944 61.2533 17.4237 61.2282V58.3772C17.8709 58.3565 18.3006 58.3373 18.7801 58.3166V53.978H15.9719V51.0723H18.7464C18.6525 50.471 18.607 49.9466 18.4868 49.4414C17.7609 46.3821 16.1244 43.9299 13.655 42.0021C12.4834 41.0862 11.4012 40.0536 10.1826 38.99C10.9847 38.2632 11.6769 37.6354 12.3236 37.0489H12.325ZM21.7202 61.2962C21.8272 63.5977 22.7995 65.2995 24.7336 66.3527C26.835 67.4961 28.9363 67.3513 30.8822 65.9642C32.4439 64.8504 33.2255 63.286 33.2636 61.2976H21.7187L21.7202 61.2962ZM21.7657 58.3063H33.2358V53.9972H21.7657V58.3063Z" fill="#3C251F"/>
<path d="M12.0435 9.70687C11.3132 9.0761 10.6299 8.48521 9.94653 7.89579C17.7375 -2.04301 35.7272 -3.19082 45.0974 7.85591C44.4038 8.46009 43.7088 9.06576 42.9638 9.71426C38.7861 5.21166 33.6786 2.94707 27.5447 2.93821C21.4035 2.92787 16.2799 5.15701 12.0435 9.70687Z" fill="#3C251F"/>
<path d="M27.4744 35.0177C21.1029 35.0089 15.9207 29.775 15.9236 23.352C15.9251 16.9054 21.1586 11.6613 27.5594 11.6908C33.9148 11.7203 39.0911 16.9837 39.0794 23.4038C39.0662 29.812 33.8546 35.0281 27.4758 35.0192L27.4744 35.0177ZM36.1701 23.3565C36.173 18.5245 32.3135 14.629 27.5184 14.6216C22.7159 14.6142 18.8461 18.489 18.8329 23.3195C18.8197 28.1959 22.6866 32.1017 27.5184 32.0899C32.3179 32.078 36.1686 28.1915 36.1715 23.355L36.1701 23.3565Z" fill="#3C251F"/>
<path d="M21.7818 23.3816H24.5239C25.1046 25.466 26.1942 26.4365 27.7471 26.271C29.1827 26.1174 30.2678 25.0051 30.3968 23.5559C30.5332 22.0181 29.5801 20.9442 27.5418 20.3636V17.6056C30.4819 17.3781 33.1771 20.0283 33.2768 23.2014C33.3795 26.4912 30.696 29.2447 27.4406 29.1886C24.2673 29.1339 21.6219 26.4527 21.7833 23.3816H21.7818Z" fill="#3C251F"/>
</g>
<defs>
<clipPath id="clip0_2_296">
<rect width="55" height="70" fill="white"/>
</clipPath>
</defs>
</svg>
