<svg width="11" height="11" viewBox="0 0 11 11" fill="none" xmlns="http://www.w3.org/2000/svg">
<path d="M9.52152 1.30772C9.18277 0.968964 8.74724 0.775391 8.26331 0.775391H2.31094C1.82701 0.775391 1.39146 0.968964 1.05271 1.30772C0.713958 1.64647 0.520386 2.08201 0.520386 2.56594V8.51831C0.520386 9.00224 0.713958 9.43778 1.05271 9.77653C1.39146 10.1153 1.82701 10.3089 2.31094 10.3089H8.26331C8.74724 10.3089 9.18277 10.1153 9.52152 9.77653C9.86028 9.43778 10.0539 9.00224 10.0539 8.51831V2.56594C10.0539 2.08201 9.86028 1.64647 9.52152 1.30772ZM6.134 2.1304H6.56954V3.82416C6.56954 3.92095 6.56954 3.96934 6.56954 3.96934C6.56954 4.01774 6.61793 4.06613 6.66633 4.06613C6.76311 4.06613 6.81151 4.01774 6.90829 3.87256V2.1304H7.34383V4.40488H6.90829V4.21131C6.76311 4.40488 6.56954 4.50167 6.42436 4.50167C6.27918 4.50167 6.18239 4.45328 6.134 4.35649C6.08561 4.2597 6.08561 4.16292 6.08561 4.01774V2.1304H6.134ZM4.58542 2.90469C4.58542 2.66273 4.63381 2.46915 4.7306 2.37237C4.82738 2.22719 5.02096 2.1304 5.21453 2.1304C5.4081 2.1304 5.55328 2.22719 5.69846 2.37237C5.79525 2.46915 5.84364 2.66273 5.84364 2.90469V3.72738C5.84364 3.96934 5.79525 4.16292 5.69846 4.2597C5.60168 4.40488 5.4081 4.50167 5.21453 4.50167C5.02096 4.50167 4.82738 4.40488 4.7306 4.2597C4.63381 4.16292 4.58542 3.96934 4.58542 3.72738V2.90469ZM3.47237 1.35611L3.81112 2.56594L4.14988 1.35611H4.63381L4.05309 3.19505V4.45328H3.61755V3.19505C3.56916 2.95309 3.47237 2.66273 3.32719 2.22719C3.2304 1.93683 3.18202 1.79165 3.18202 1.79165L3.03684 1.35611H3.47237ZM8.55366 8.85706C8.50527 9.05063 8.40848 9.19581 8.31169 9.2926C8.16651 9.43778 8.02133 9.48617 7.82776 9.48617C7.24704 9.53456 6.42436 9.58296 5.26292 9.58296C4.14988 9.58296 3.2788 9.53456 2.69808 9.48617C2.50451 9.48617 2.35933 9.38939 2.21415 9.2926C2.06897 9.14742 1.97218 9.00224 1.97218 8.85706C1.8754 8.51831 1.82701 7.98598 1.82701 7.26008C1.82701 6.53418 1.8754 6.00186 1.97218 5.66311C2.02058 5.46953 2.11736 5.32435 2.21415 5.22757C2.35933 5.08239 2.50451 5.03399 2.69808 5.03399C3.2788 4.9856 4.10148 4.93721 5.26292 4.93721C6.42436 4.93721 7.24704 4.9856 7.82776 5.03399C8.02133 5.03399 8.16651 5.13078 8.31169 5.22757C8.45687 5.37275 8.55366 5.51793 8.60206 5.66311C8.69884 6.00186 8.69884 6.53418 8.69884 7.26008C8.69884 7.93759 8.65045 8.46991 8.55366 8.85706Z" fill="white"/>
<path d="M2.40777 6.09862H2.8917V8.71186H3.32724V6.09862H3.81117V5.66309H2.35938V6.09862H2.40777Z" fill="white"/>
<path d="M4.6822 8.17929C4.58541 8.32447 4.48862 8.37286 4.44023 8.37286C4.39184 8.37286 4.34345 8.32447 4.34345 8.27608C4.34345 8.27608 4.34345 8.22768 4.34345 8.1309V6.43713H3.9563V8.22768C3.9563 8.37286 3.9563 8.51804 4.0047 8.56644C4.05309 8.66322 4.14987 8.76001 4.24666 8.76001C4.39184 8.76001 4.53702 8.66322 4.73059 8.46965V8.71162H5.16613V6.43713H4.73059V8.17929H4.6822Z" fill="white"/>
<path d="M6.27916 6.38898C6.13398 6.38898 5.9888 6.48577 5.84362 6.63095V5.66309H5.40808V8.71186H5.84362V8.46989C5.9888 8.61507 6.13398 8.71186 6.27916 8.71186C6.42434 8.71186 6.56952 8.61507 6.61791 8.46989C6.6663 8.37311 6.66631 8.22793 6.66631 8.03435V7.11488C6.66631 6.87292 6.6663 6.72774 6.61791 6.67934C6.52113 6.48577 6.42434 6.38898 6.27916 6.38898ZM6.23076 8.03435C6.23076 8.22793 6.18237 8.32471 6.03719 8.32471C5.9888 8.32471 5.89202 8.27632 5.84362 8.22793V6.82452C5.89202 6.77613 5.9888 6.72774 6.03719 6.72774C6.13398 6.72774 6.23076 6.82452 6.23076 7.0181V8.03435Z" fill="white"/>
<path d="M7.77923 8.0341C7.77923 8.08249 7.77923 8.13088 7.77923 8.13088C7.77923 8.17928 7.77923 8.17928 7.77923 8.17928C7.73084 8.27606 7.68244 8.32445 7.58566 8.32445C7.44048 8.32445 7.39209 8.22767 7.39209 7.9857V7.59856H8.21477V7.11462C8.21477 6.87266 8.16638 6.67908 8.06959 6.5823C7.9728 6.43712 7.77923 6.34033 7.58566 6.34033C7.39208 6.34033 7.19851 6.43712 7.10172 6.5823C7.00494 6.67908 6.95654 6.87266 6.95654 7.11462V7.88892C6.95654 8.13088 7.00494 8.32445 7.10172 8.42124C7.19851 8.56642 7.39208 8.66321 7.58566 8.66321C7.82762 8.66321 7.9728 8.56642 8.06959 8.42124C8.11798 8.32445 8.16637 8.27606 8.16637 8.17928C8.16637 8.13088 8.16637 8.0341 8.16637 7.88892V7.84052H7.73084V8.0341H7.77923ZM7.34369 7.06623C7.34369 6.87266 7.39209 6.72748 7.53727 6.72748C7.68245 6.72748 7.73084 6.82426 7.73084 7.06623V7.2598H7.34369V7.06623Z" fill="white"/>
<path d="M5.21457 4.114C5.35975 4.114 5.40814 4.01721 5.40814 3.77525V2.80738C5.40814 2.61381 5.35975 2.46863 5.21457 2.46863C5.06939 2.46863 5.021 2.56541 5.021 2.80738V3.77525C5.021 3.96882 5.06939 4.114 5.21457 4.114Z" fill="white"/>
</svg>
